<svg xmlns="http://www.w3.org/2000/svg" viewBox="0 0 60 30" width="20" height="10" style="border-radius:2px;display:inline-block;vertical-align:middle;">
<clipPath id="s"><path d="M0,0 v30 h60 v-30 z"/></clipPath>
<clipPath id="t"><path d="M30,15 L0,0 v30 z M30,15 L60,0 v30 z M30,15 L0,0 h60 z M30,15 L0,30 h60 z"/></clipPath>
<g clip-path="url(#s)">
<path d="M0,0 v30 h60 v-30 z" fill="#012169"/>
<path d="M0,0 L60,30 M60,0 L0,30" stroke="#fff" stroke-width="6"/>
<path d="M0,0 L60,30 M60,0 L0,30" clip-path="url(#t)" stroke="#C8102E" stroke-width="4"/>
<path d="M30,0 v30 M0,15 h60" stroke="#fff" stroke-width="10"/>
<path d="M30,0 v30 M0,15 h60" stroke="#C8102E" stroke-width="6"/>
</g>
</svg>
